<svg width="720" height="730" viewBox="0 0 720 730" fill="none" xmlns="http://www.w3.org/2000/svg">
<path d="M425.218 341.071L644.904 469.667C645.689 470.129 646.58 470.372 647.487 470.374C648.395 470.375 649.287 470.135 650.073 469.676C650.86 469.217 651.514 468.557 651.969 467.761C652.424 466.965 652.664 466.061 652.665 465.141V171.769C652.662 169.265 652.009 166.806 650.773 164.639C649.538 162.471 647.762 160.671 645.624 159.417L435.715 36.5C434.651 35.8772 433.444 35.5493 432.216 35.5494C430.987 35.5494 429.78 35.8775 428.716 36.5004C427.652 37.1234 426.769 38.0193 426.155 39.0982C425.54 40.1771 425.217 41.4009 425.218 42.6466V341.071Z" fill="#313131"/>
<path opacity="0.5" d="M425.218 341.071L644.904 469.667C645.689 470.129 646.58 470.372 647.487 470.374C648.395 470.375 649.287 470.135 650.073 469.676C650.86 469.217 651.514 468.557 651.969 467.761C652.424 466.965 652.664 466.061 652.665 465.141V171.769C652.662 169.265 652.009 166.806 650.773 164.639C649.538 162.471 647.762 160.671 645.624 159.417L435.715 36.5C434.651 35.8772 433.444 35.5493 432.216 35.5494C430.987 35.5494 429.78 35.8775 428.716 36.5004C427.652 37.1234 426.769 38.0193 426.155 39.0982C425.54 40.1771 425.217 41.4009 425.218 42.6466V341.071Z" fill="white"/>
<path d="M431.438 354.546L632.88 472.456V174.339L431.438 56.429V354.546Z" fill="#313131"/>
<path opacity="0.8" d="M431.438 354.546L632.88 472.456V174.339L431.438 56.429V354.546Z" fill="white"/>
<path d="M411.768 330.734L613.21 448.643L632.88 174.339L431.438 56.429L411.768 330.734Z" fill="#313131"/>
<path opacity="0.9" d="M411.768 330.734L613.21 448.643L632.88 174.339L431.438 56.429L411.768 330.734Z" fill="white"/>
<path d="M431.438 56.429L632.88 174.339L640.512 169.871L439.07 51.9468L431.438 56.429Z" fill="#313131"/>
<path opacity="0.7" d="M431.438 56.429L632.88 174.339L640.512 169.871L439.07 51.9468L431.438 56.429Z" fill="white"/>
<path d="M640.512 169.871V466.85L632.88 472.456V174.339L640.512 169.871Z" fill="#313131"/>
<path d="M640.512 169.871V466.85L632.88 472.456V174.339L640.512 169.871Z" fill="#313131"/>
<path opacity="0.7" d="M640.512 169.871V466.85L632.88 472.456V174.339L640.512 169.871Z" fill="white"/>
<path d="M577.44 213.029C577.263 213.051 577.084 213.051 576.907 213.029C576.603 212.945 576.323 212.79 576.088 212.577C575.853 212.364 575.67 212.099 575.554 211.802L569.563 196.545C569.369 196.04 569.38 195.477 569.593 194.979C569.806 194.482 570.204 194.09 570.701 193.888C570.946 193.786 571.209 193.735 571.475 193.737C571.74 193.74 572.002 193.795 572.246 193.901C572.49 194.007 572.711 194.161 572.895 194.355C573.08 194.548 573.225 194.776 573.322 195.027L578.304 207.714L606.974 184.632C607.182 184.457 607.423 184.326 607.682 184.247C607.941 184.169 608.213 184.143 608.481 184.173C608.75 184.203 609.01 184.288 609.246 184.422C609.482 184.556 609.689 184.736 609.854 184.953C610.023 185.165 610.149 185.41 610.224 185.672C610.3 185.934 610.323 186.208 610.294 186.479C610.265 186.751 610.183 187.014 610.053 187.253C609.923 187.492 609.748 187.702 609.538 187.873L578.736 212.693C578.355 212.952 577.897 213.071 577.44 213.029Z" fill="#313131"/>
<path d="M543.96 180.135C543.607 180.134 543.261 180.044 542.952 179.872L458.136 130.232C457.672 129.959 457.334 129.51 457.196 128.985C457.058 128.459 457.132 127.899 457.402 127.429C457.671 126.958 458.113 126.616 458.632 126.476C459.15 126.336 459.702 126.411 460.166 126.684L544.982 176.324C545.373 176.547 545.68 176.896 545.853 177.316C546.027 177.735 546.057 178.201 545.94 178.64C545.822 179.079 545.564 179.466 545.205 179.74C544.847 180.013 544.408 180.157 543.96 180.149V180.135Z" fill="#313131"/>
<path d="M542.016 197.786C541.661 197.787 541.313 197.691 541.008 197.509L456.192 147.869C455.728 147.596 455.39 147.147 455.252 146.621C455.114 146.096 455.188 145.536 455.458 145.066C455.727 144.595 456.169 144.252 456.688 144.113C457.206 143.973 457.758 144.048 458.222 144.321L543.038 193.961C543.429 194.184 543.736 194.533 543.909 194.952C544.083 195.372 544.113 195.838 543.996 196.277C543.878 196.716 543.62 197.103 543.261 197.376C542.903 197.65 542.465 197.794 542.016 197.786Z" fill="#313131"/>
<path d="M590.962 235.381C590.043 235.381 589.14 235.139 588.341 234.68L562.118 219.978C560.227 218.928 558.677 217.344 557.654 215.419C556.632 213.494 556.182 211.309 556.358 209.13L558.849 179.478C558.933 178.561 559.242 177.68 559.748 176.916C560.254 176.151 560.941 175.528 561.746 175.102C562.551 174.676 563.448 174.462 564.356 174.48C565.264 174.497 566.153 174.744 566.942 175.2L594.518 191.348C595.827 192.122 596.896 193.25 597.606 194.607C598.316 195.964 598.638 197.495 598.536 199.027L596.29 230.286C596.222 231.196 595.93 232.075 595.439 232.841C594.948 233.606 594.275 234.234 593.482 234.666C592.711 235.107 591.846 235.352 590.962 235.381V235.381ZM564.307 178.573C563.966 178.571 563.636 178.699 563.383 178.931C563.13 179.164 562.971 179.484 562.939 179.828L560.448 209.481C560.33 210.864 560.609 212.253 561.253 213.479C561.898 214.704 562.878 215.714 564.077 216.387L590.299 231.103C590.502 231.208 590.727 231.263 590.954 231.263C591.182 231.263 591.407 231.208 591.61 231.103C591.81 230.993 591.979 230.834 592.103 230.64C592.226 230.446 592.299 230.224 592.315 229.994L594.562 198.735C594.611 197.972 594.45 197.21 594.097 196.534C593.743 195.859 593.211 195.296 592.56 194.91V194.91L564.969 178.762C564.771 178.636 564.541 178.57 564.307 178.573V178.573Z" fill="#313131"/>
<path d="M537.97 253.193C537.615 253.193 537.267 253.097 536.962 252.916L452.146 203.276C451.682 203.003 451.343 202.554 451.206 202.028C451.068 201.503 451.142 200.943 451.411 200.473C451.68 200.002 452.123 199.659 452.641 199.52C453.16 199.38 453.712 199.455 454.176 199.728L538.992 249.368C539.383 249.591 539.689 249.94 539.863 250.359C540.036 250.779 540.067 251.245 539.949 251.684C539.832 252.123 539.574 252.51 539.215 252.783C538.856 253.057 538.418 253.201 537.97 253.193Z" fill="#313131"/>
<path d="M536.026 270.83C535.671 270.83 535.323 270.734 535.018 270.553L450.202 220.913C449.972 220.777 449.771 220.598 449.609 220.384C449.448 220.17 449.33 219.925 449.262 219.665C449.194 219.405 449.177 219.134 449.212 218.867C449.247 218.6 449.334 218.342 449.467 218.109C449.6 217.876 449.778 217.672 449.989 217.509C450.2 217.345 450.441 217.226 450.697 217.156C450.954 217.087 451.222 217.07 451.485 217.106C451.748 217.142 452.002 217.23 452.232 217.365L537.048 267.005C537.439 267.228 537.745 267.577 537.919 267.996C538.092 268.416 538.123 268.882 538.005 269.321C537.888 269.76 537.63 270.147 537.271 270.42C536.912 270.693 536.474 270.838 536.026 270.83V270.83Z" fill="#313131"/>
<path d="M584.971 308.425C584.055 308.421 583.154 308.185 582.35 307.739L556.128 293.022C554.236 291.973 552.684 290.389 551.662 288.464C550.639 286.538 550.19 284.354 550.368 282.174L552.96 252.58C553.04 251.662 553.346 250.778 553.851 250.011C554.357 249.245 555.044 248.619 555.851 248.193C556.657 247.767 557.556 247.554 558.465 247.573C559.375 247.592 560.264 247.843 561.053 248.302L588.629 264.45C589.937 265.22 591.007 266.346 591.717 267.701C592.427 269.055 592.749 270.584 592.646 272.115L590.4 303.344C590.298 304.723 589.687 306.012 588.689 306.954C587.691 307.896 586.378 308.422 585.014 308.425H584.971ZM558.317 251.616C558.096 251.62 557.879 251.675 557.683 251.777C557.477 251.882 557.301 252.039 557.172 252.234C557.043 252.428 556.966 252.653 556.949 252.887L554.4 282.525C554.282 283.908 554.562 285.297 555.206 286.522C555.85 287.748 556.83 288.758 558.029 289.43L584.251 304.147C584.45 304.264 584.676 304.325 584.906 304.325C585.136 304.325 585.362 304.264 585.562 304.147C585.765 304.042 585.938 303.884 586.062 303.689C586.186 303.494 586.257 303.269 586.267 303.038L588.514 271.779C588.563 271.016 588.402 270.254 588.049 269.578C587.695 268.902 587.163 268.34 586.512 267.954L558.922 251.806C558.74 251.69 558.531 251.625 558.317 251.616Z" fill="#313131"/>
<path d="M572.213 285.401C572.036 285.422 571.857 285.422 571.68 285.401C571.376 285.317 571.095 285.162 570.86 284.949C570.626 284.737 570.443 284.471 570.326 284.174L564.336 268.932C564.181 268.435 564.219 267.897 564.442 267.428C564.666 266.959 565.057 266.594 565.537 266.407C566.017 266.221 566.549 266.227 567.024 266.425C567.499 266.623 567.882 266.997 568.094 267.472L573.12 280.028L601.747 256.96C602.171 256.671 602.686 256.554 603.191 256.633C603.696 256.712 604.152 256.981 604.47 257.386C604.788 257.791 604.944 258.303 604.906 258.819C604.869 259.336 604.64 259.819 604.267 260.172L573.466 284.992C573.105 285.267 572.664 285.41 572.213 285.401V285.401Z" fill="#313131"/>
<path d="M531.994 326.237C531.639 326.238 531.291 326.142 530.986 325.96L446.155 276.32C445.71 276.036 445.391 275.589 445.264 275.072C445.138 274.554 445.214 274.008 445.477 273.546C445.74 273.085 446.169 272.745 446.674 272.598C447.179 272.45 447.721 272.508 448.186 272.757L533.002 322.397C533.391 322.62 533.697 322.967 533.871 323.385C534.044 323.803 534.076 324.268 533.96 324.706C533.845 325.144 533.589 325.531 533.233 325.806C532.877 326.08 532.441 326.227 531.994 326.222V326.237Z" fill="#313131"/>
<path d="M530.05 343.888C529.691 343.888 529.338 343.792 529.027 343.611L444.211 293.971C443.981 293.836 443.78 293.656 443.619 293.442C443.458 293.228 443.34 292.984 443.271 292.724C443.203 292.463 443.186 292.192 443.221 291.925C443.257 291.658 443.343 291.401 443.477 291.168C443.61 290.935 443.787 290.731 443.998 290.567C444.21 290.404 444.45 290.284 444.707 290.215C444.964 290.146 445.231 290.129 445.495 290.164C445.758 290.2 446.012 290.288 446.242 290.423L531.058 340.063C531.443 340.29 531.745 340.639 531.916 341.057C532.086 341.474 532.117 341.937 532.002 342.374C531.887 342.811 531.634 343.197 531.281 343.474C530.928 343.75 530.495 343.901 530.05 343.903V343.888Z" fill="#313131"/>
<path d="M578.981 381.469C578.068 381.473 577.17 381.237 576.374 380.783L550.08 366.066C548.189 365.015 546.638 363.432 545.616 361.506C544.594 359.581 544.144 357.397 544.32 355.218L546.826 325.58C546.9 324.662 547.203 323.779 547.707 323.013C548.211 322.246 548.899 321.623 549.706 321.2C550.512 320.776 551.411 320.564 552.319 320.584C553.228 320.605 554.117 320.857 554.904 321.317L582.48 337.464C583.787 338.239 584.854 339.369 585.561 340.726C586.269 342.083 586.588 343.613 586.483 345.144L584.237 376.403C584.167 377.312 583.873 378.19 583.383 378.955C582.892 379.72 582.22 380.349 581.429 380.783C580.677 381.203 579.838 381.438 578.981 381.469V381.469ZM552.326 324.675C552.107 324.674 551.89 324.724 551.693 324.821C551.492 324.933 551.321 325.092 551.193 325.285C551.065 325.478 550.985 325.7 550.958 325.93L548.467 355.568C548.347 356.952 548.626 358.342 549.27 359.568C549.914 360.794 550.896 361.803 552.096 362.474L578.333 377.191C578.53 377.306 578.753 377.367 578.981 377.37C579.209 377.373 579.433 377.317 579.634 377.207C579.834 377.098 580.003 376.938 580.126 376.744C580.249 376.549 580.32 376.326 580.334 376.096L582.581 344.823C582.634 344.059 582.474 343.296 582.12 342.619C581.767 341.943 581.233 341.381 580.579 340.998L552.96 324.85C552.765 324.743 552.548 324.683 552.326 324.675V324.675Z" fill="#313131"/>
<path d="M577.57 157.461C576.055 157.467 574.565 157.069 573.25 156.308L537.12 135.619C536.72 135.391 536.41 135.03 536.242 134.597C534.496 130.028 531.378 126.131 527.328 123.458C525.888 122.582 522.115 120.844 520.128 123.779C519.835 124.19 519.404 124.478 518.915 124.588C518.427 124.699 517.916 124.624 517.478 124.377L486.346 106.653C484.596 105.629 483.143 104.156 482.132 102.383C481.121 100.61 480.588 98.598 480.586 96.5498V74.095C480.587 71.6585 481.277 69.2734 482.574 67.2217C483.87 65.17 485.718 63.5376 487.901 62.5172C488.195 62.3795 488.517 62.3156 488.84 62.3309C489.163 62.3461 489.478 62.4401 489.758 62.6048L589.781 121.53C590.106 121.719 590.372 121.995 590.551 122.329C590.729 122.662 590.813 123.04 590.792 123.419C590.771 123.797 590.647 124.163 590.432 124.474C590.218 124.785 589.923 125.03 589.579 125.18C588.628 125.603 587.819 126.298 587.252 127.18C586.684 128.061 586.382 129.092 586.382 130.144V148.57C586.396 150.121 586.003 151.647 585.244 152.994C584.485 154.341 583.387 155.459 582.062 156.235C580.701 157.046 579.149 157.47 577.57 157.461V157.461ZM539.654 132.393L575.251 152.731C575.968 153.142 576.779 153.355 577.602 153.349C578.426 153.343 579.233 153.119 579.944 152.698C580.655 152.277 581.245 151.674 581.655 150.95C582.064 150.225 582.279 149.405 582.278 148.57V130.144C582.277 127.648 583.244 125.251 584.971 123.472L488.635 66.722C487.411 67.4978 486.397 68.5725 485.688 69.8477C484.978 71.1229 484.596 72.5581 484.574 74.022V96.5498C484.575 97.8775 484.924 99.1811 485.584 100.328C486.244 101.474 487.193 102.423 488.333 103.076L517.954 119.997C520.762 117.486 525.01 117.399 529.301 119.91C533.942 122.885 537.559 127.246 539.654 132.393V132.393Z" fill="#313131"/>
<path d="M328.478 391.806L311.198 498.94C311.072 499.723 310.675 500.435 310.079 500.948C309.483 501.462 308.726 501.744 307.944 501.744V501.744C307.48 501.744 307.021 501.646 306.598 501.455C306.174 501.263 305.795 500.984 305.485 500.634C305.175 500.284 304.941 499.871 304.799 499.423C304.657 498.976 304.61 498.503 304.661 498.035L316.814 387.513L328.478 391.806Z" fill="#263238"/>
<path d="M268.704 355.773L251.424 462.908C251.301 463.689 250.907 464.4 250.313 464.914C249.719 465.428 248.965 465.71 248.184 465.711C247.72 465.712 247.261 465.613 246.838 465.422C246.414 465.231 246.035 464.951 245.725 464.601C245.415 464.251 245.181 463.838 245.039 463.391C244.897 462.943 244.85 462.47 244.901 462.002L257.054 351.466L268.704 355.773Z" fill="#263238"/>
<path d="M355.061 366.752L372.154 459.082C372.312 459.783 372.728 460.397 373.318 460.796C373.907 461.196 374.625 461.352 375.324 461.233C376.024 461.113 376.652 460.727 377.079 460.154C377.507 459.58 377.703 458.863 377.626 458.148L365.011 372.577L355.061 366.752Z" fill="#263238"/>
<path d="M294.61 332.311L311.602 424.072C311.72 424.718 312.059 425.302 312.559 425.722C313.059 426.141 313.689 426.368 314.338 426.364C314.736 426.361 315.129 426.273 315.491 426.104C315.853 425.935 316.175 425.689 316.435 425.383C316.696 425.078 316.889 424.719 317.001 424.332C317.114 423.944 317.143 423.537 317.088 423.137L304.56 338.121L294.61 332.311Z" fill="#263238"/>
<path d="M299.52 325.332C303.455 323.581 306.862 320.804 309.392 317.282C311.922 313.76 313.484 309.62 313.92 305.286C316.67 277.181 326.434 219.248 359.539 238.535C400.378 262.333 385.762 331.464 379.814 353.627C378.485 358.62 375.9 363.178 372.312 366.854C364.925 374.402 349.646 387.382 323.669 398.419C320.476 399.782 316.92 399.998 313.589 399.033C300.629 395.31 266.962 383.849 250.142 362.051C249.188 360.814 248.755 359.244 248.939 357.685C249.122 356.126 249.907 354.703 251.122 353.729C257.875 348.239 273.254 337.26 299.52 325.332Z" fill="#313131"/>
<path opacity="0.5" d="M299.52 325.332C303.455 323.581 306.862 320.804 309.392 317.282C311.922 313.76 313.484 309.62 313.92 305.286C316.67 277.181 326.434 219.248 359.539 238.535C400.378 262.333 385.762 331.464 379.814 353.627C378.485 358.62 375.9 363.178 372.312 366.854C364.925 374.402 349.646 387.382 323.669 398.419C320.476 399.782 316.92 399.998 313.589 399.033C300.629 395.31 266.962 383.849 250.142 362.051C249.188 360.814 248.755 359.244 248.939 357.685C249.122 356.126 249.907 354.703 251.122 353.729C257.875 348.239 273.254 337.26 299.52 325.332Z" fill="#313131"/>
<path d="M248.875 358.094C248.788 359.519 249.218 360.926 250.085 362.051C250.992 363.219 251.943 364.343 252.965 365.453C253.498 366.051 254.059 366.65 254.621 367.234C255.183 367.818 255.759 368.387 256.335 368.942L258.106 370.606C258.711 371.161 259.33 371.701 259.949 372.242C269.482 380.359 281.059 386.535 291.399 391.003L293.314 391.806L293.515 391.893L295.272 392.609L295.589 392.74L297.231 393.397L297.605 393.543L299.146 394.127L299.578 394.288C300.067 394.477 300.528 394.653 301.018 394.813L301.522 395.003L302.832 395.47L303.379 395.66L304.589 396.083L305.165 396.288L306.259 396.653L306.879 396.857L307.872 397.178L308.535 397.397L309.384 397.66L310.104 397.894L310.81 398.113L311.688 398.376L312.135 398.507L313.373 398.872C316.704 399.838 320.26 399.621 323.453 398.259C349.373 387.221 364.709 374.242 372.096 366.694C375.684 363.017 378.269 358.459 379.598 353.466C385.546 331.303 400.162 262.172 359.323 238.374C358.589 237.951 357.883 237.571 357.178 237.235C357.029 237.149 356.875 237.071 356.717 237.002C356.026 236.666 355.349 236.374 354.687 236.111L354.485 236.038C353.837 235.79 353.218 235.586 352.584 235.396L352.296 235.308C351.634 235.118 350.971 234.972 350.323 234.841H350.151C348.859 234.602 347.546 234.504 346.234 234.549V234.549C344.981 234.593 343.739 234.789 342.533 235.133V235.133C349.056 232.213 357.019 232.344 364.911 236.943C405.763 260.741 391.133 329.858 385.2 352.035L384.192 355.831C382.217 363.569 377.759 370.421 371.52 375.308L360.922 383.527C349.46 392.298 336.929 399.531 323.64 405.048C320.447 406.408 316.893 406.63 313.56 405.676C300.6 401.953 266.919 390.506 250.099 368.694C249.382 367.762 248.96 366.632 248.89 365.453V365.453V358.153L248.875 358.094Z" fill="#313131"/>
<path opacity="0.6" d="M248.875 358.094C248.788 359.519 249.218 360.926 250.085 362.051C250.992 363.219 251.943 364.343 252.965 365.453C253.498 366.051 254.059 366.65 254.621 367.234C255.183 367.818 255.759 368.387 256.335 368.942L258.106 370.606C258.711 371.161 259.33 371.701 259.949 372.242C269.482 380.359 281.059 386.535 291.399 391.003L293.314 391.806L293.515 391.893L295.272 392.609L295.589 392.74L297.231 393.397L297.605 393.543L299.146 394.127L299.578 394.288C300.067 394.477 300.528 394.653 301.018 394.813L301.522 395.003L302.832 395.47L303.379 395.66L304.589 396.083L305.165 396.288L306.259 396.653L306.879 396.857L307.872 397.178L308.535 397.397L309.384 397.66L310.104 397.894L310.81 398.113L311.688 398.376L312.135 398.507L313.373 398.872C316.704 399.838 320.26 399.621 323.453 398.259C349.373 387.221 364.709 374.242 372.096 366.694C375.684 363.017 378.269 358.459 379.598 353.466C385.546 331.303 400.162 262.172 359.323 238.374C358.589 237.951 357.883 237.571 357.178 237.235C357.029 237.149 356.875 237.071 356.717 237.002C356.026 236.666 355.349 236.374 354.687 236.111L354.485 236.038C353.837 235.79 353.218 235.586 352.584 235.396L352.296 235.308C351.634 235.118 350.971 234.972 350.323 234.841H350.151C348.859 234.602 347.546 234.504 346.234 234.549V234.549C344.981 234.593 343.739 234.789 342.533 235.133V235.133C349.056 232.213 357.019 232.344 364.911 236.943C405.763 260.741 391.133 329.858 385.2 352.035L384.192 355.831C382.217 363.569 377.759 370.421 371.52 375.308L360.922 383.527C349.46 392.298 336.929 399.531 323.64 405.048C320.447 406.408 316.893 406.63 313.56 405.676C300.6 401.953 266.919 390.506 250.099 368.694C249.382 367.762 248.96 366.632 248.89 365.453V365.453V358.153L248.875 358.094Z" fill="#313131"/>
<path d="M302.573 604.674C303.627 605.214 304.791 605.495 305.971 605.495C307.152 605.495 308.316 605.214 309.37 604.674C311.256 603.579 311.256 601.754 309.37 600.702C308.318 600.155 307.153 599.87 305.971 599.87C304.789 599.87 303.625 600.155 302.573 600.702C300.701 601.797 300.701 603.579 302.573 604.674Z" fill="#37474F"/>
<path d="M301.147 602.571H310.766V485.246H301.147V602.571Z" fill="#37474F"/>
<path d="M411.84 539.601C412.894 540.142 414.058 540.423 415.238 540.423C416.419 540.423 417.583 540.142 418.637 539.601C420.523 538.492 420.523 536.681 418.637 535.616C417.583 535.075 416.419 534.794 415.238 534.794C414.058 534.794 412.894 535.075 411.84 535.616C410.011 536.711 410.011 538.492 411.84 539.601Z" fill="#263238"/>
<path d="M410.472 537.499H420.091V420.173H410.472V537.499Z" fill="#263238"/>
<path d="M123.379 499.408C124.431 499.955 125.596 500.24 126.777 500.24C127.959 500.24 129.124 499.955 130.176 499.408C132.062 498.313 132.062 496.488 130.176 495.436C129.122 494.896 127.958 494.615 126.777 494.615C125.597 494.615 124.433 494.896 123.379 495.436C121.507 496.531 121.507 498.313 123.379 499.408Z" fill="#37474F"/>
<path d="M121.954 497.32H131.573V379.994H121.954L121.954 497.32Z" fill="#37474F"/>
<path d="M240.898 410.625C241.84 411.114 242.884 411.37 243.943 411.37C245.002 411.37 246.046 411.114 246.989 410.625C247.355 410.498 247.672 410.257 247.897 409.938C248.122 409.619 248.243 409.236 248.243 408.844C248.243 408.451 248.122 408.069 247.897 407.75C247.672 407.43 247.355 407.19 246.989 407.063C246.046 406.573 245.002 406.318 243.943 406.318C242.884 406.318 241.84 406.573 240.898 407.063C240.532 407.19 240.214 407.43 239.989 407.75C239.764 408.069 239.644 408.451 239.644 408.844C239.644 409.236 239.764 409.619 239.989 409.938C240.214 410.257 240.532 410.498 240.898 410.625V410.625Z" fill="#455A64"/>
<path d="M239.616 408.756H248.242V310.849H239.616V408.756Z" fill="#455A64"/>
<path d="M420.091 400.741V424.086L305.957 490.896V467.55L420.091 400.741Z" fill="#263238"/>
<path d="M121.968 359.846L305.957 467.55V490.896L121.968 383.192V359.846Z" fill="#37474F"/>
<path d="M236.102 293.037L420.091 400.741L305.957 467.55L121.968 359.846L236.102 293.037Z" fill="#455A64"/>
<path opacity="0.2" d="M236.678 408.493L152.05 358.956C151.846 358.836 151.678 358.665 151.56 358.459C151.443 358.252 151.381 358.018 151.381 357.78C151.381 357.542 151.443 357.308 151.56 357.102C151.678 356.896 151.846 356.724 152.05 356.605L168.336 347.071C168.543 346.961 168.772 346.904 169.006 346.904C169.239 346.904 169.469 346.961 169.675 347.071L254.304 396.609C254.504 396.729 254.67 396.9 254.785 397.105C254.9 397.31 254.96 397.541 254.96 397.777C254.96 398.013 254.9 398.244 254.785 398.449C254.67 398.654 254.504 398.825 254.304 398.945L238.003 408.493C237.801 408.609 237.573 408.669 237.341 408.669C237.109 408.669 236.881 408.609 236.678 408.493V408.493Z" fill="#313131"/>
<path d="M317.707 447.49L268.344 418.29C268.234 418.224 268.142 418.131 268.078 418.018C268.014 417.905 267.981 417.777 267.981 417.648C267.981 417.518 268.014 417.39 268.078 417.277C268.142 417.165 268.234 417.071 268.344 417.005L323.064 382.812L317.707 447.49Z" fill="#313131"/>
<path opacity="0.4" d="M317.707 447.49L268.344 418.29C268.234 418.224 268.142 418.131 268.078 418.018C268.014 417.905 267.981 417.777 267.981 417.648C267.981 417.518 268.014 417.39 268.078 417.277C268.142 417.165 268.234 417.071 268.344 417.005L323.064 382.812L317.707 447.49Z" fill="#313131"/>
<path d="M317.707 447.49L372.744 415.18V400.493L317.707 432.671V447.49Z" fill="#313131"/>
<path opacity="0.2" d="M317.707 447.49L372.744 415.18V400.493L317.707 432.671V447.49Z" fill="#313131"/>
<path d="M362.002 417.443L340.272 430.16C338.832 431.007 337.651 430.16 337.651 428.16C337.668 427.166 337.913 426.191 338.369 425.311C338.824 424.432 339.476 423.672 340.272 423.093L362.002 410.362C363.442 409.515 364.622 410.362 364.622 412.377C364.609 413.371 364.365 414.348 363.909 415.228C363.454 416.108 362.8 416.867 362.002 417.443V417.443Z" fill="#E6E6E6"/>
<path d="M334.469 430.028C334.414 431.091 334.111 432.126 333.586 433.047C333.06 433.968 332.326 434.75 331.445 435.328C329.774 436.306 328.421 435.518 328.421 433.562C328.478 432.499 328.782 431.466 329.307 430.545C329.833 429.624 330.565 428.842 331.445 428.262C333.115 427.284 334.469 428.072 334.469 430.028Z" fill="#E6E6E6"/>
<path d="M317.707 432.671L268.546 409.238C268.425 409.179 268.322 409.088 268.247 408.975C268.173 408.862 268.13 408.731 268.122 408.595C268.115 408.46 268.144 408.324 268.205 408.204C268.267 408.083 268.36 407.981 268.474 407.909L321.221 376.111C321.517 375.931 321.853 375.83 322.198 375.817C322.543 375.804 322.886 375.88 323.194 376.038L372.744 400.493L317.707 432.671Z" fill="#313131"/>
<path d="M271.714 410.742V417.049L312.437 440.409V430.16L271.714 410.742Z" fill="#F5F5F5"/>
<path d="M312.437 440.409L317.707 437.066V432.671L312.437 430.16V440.409Z" fill="#E0E0E0"/>
<path d="M268.114 403.164V386.9H357.869C358.171 386.9 367.805 391.995 372.067 394.2C372.259 394.307 372.42 394.464 372.531 394.656C372.643 394.847 372.702 395.065 372.702 395.288C372.702 395.51 372.643 395.728 372.531 395.92C372.42 396.111 372.259 396.268 372.067 396.375L318.917 426.904C318.541 427.113 318.122 427.228 317.694 427.241C317.266 427.254 316.841 427.163 316.454 426.977L268.114 403.164Z" fill="#313131"/>
<path opacity="0.4" d="M268.114 403.164V386.9H357.869C358.171 386.9 367.805 391.995 372.067 394.2C372.259 394.307 372.42 394.464 372.531 394.656C372.643 394.847 372.702 395.065 372.702 395.288C372.702 395.51 372.643 395.728 372.531 395.92C372.42 396.111 372.259 396.268 372.067 396.375L318.917 426.904C318.541 427.113 318.122 427.228 317.694 427.241C317.266 427.254 316.841 427.163 316.454 426.977L268.114 403.164Z" fill="#313131"/>
<path d="M317.707 423.05L368.626 394.025V387.718L317.707 415.18V423.05Z" fill="#E0E0E0"/>
<path d="M268.114 403.164L281.434 395.266L268.114 386.871V403.164Z" fill="#313131"/>
<path opacity="0.6" d="M268.114 403.164L281.434 395.266L268.114 386.871V403.164Z" fill="#313131"/>
<path d="M276.523 392.171V401.164L317.707 423.05V415.18L276.523 392.171Z" fill="#F5F5F5"/>
<path d="M268.114 386.9L315.994 415.837C316.517 416.155 317.113 416.331 317.723 416.349C318.333 416.367 318.937 416.226 319.478 415.939L372.254 387.907C372.441 387.805 372.598 387.655 372.711 387.473C372.823 387.291 372.887 387.082 372.896 386.867C372.904 386.652 372.858 386.438 372.76 386.247C372.663 386.056 372.519 385.893 372.341 385.776L324.158 354.021L268.114 386.9Z" fill="#313131"/>
<path d="M288 352.736V356.094L266.803 368.227V364.869L288 352.736Z" fill="#313131"/>
<path opacity="0.2" d="M288 352.736V356.094L266.803 368.227V364.869L288 352.736Z" fill="white"/>
<path d="M218.434 336.53L266.803 364.869V368.227L218.434 339.888V336.53Z" fill="#313131"/>
<path opacity="0.4" d="M218.434 336.53L266.803 364.869V368.227L218.434 339.888V336.53Z" fill="white"/>
<path d="M239.63 324.397L288 352.736L266.803 364.869L218.434 336.53L239.63 324.397Z" fill="#313131"/>
<path opacity="0.6" d="M239.63 324.397L288 352.736L266.803 364.869L218.434 336.53L239.63 324.397Z" fill="white"/>
<path d="M249.192 384.301L251.352 385.571V389.572C252.746 389.58 254.115 389.201 255.312 388.477L255.471 388.375C255.967 388.073 256.399 387.674 256.74 387.199C257.082 386.725 257.326 386.187 257.458 385.615C257.534 385.37 257.573 385.114 257.573 384.856V379.396L249.192 384.301Z" fill="#E0E0E0"/>
<path d="M155.088 236.797L155.261 236.695C156.461 235.978 157.828 235.6 159.221 235.6V235.6C159.661 235.592 160.095 235.709 160.474 235.936L253.8 290.336C254.947 291.008 255.899 291.975 256.561 293.138C257.223 294.302 257.572 295.621 257.573 296.964V379.396L249.192 384.301L160.546 332.632C159.399 331.959 158.447 330.992 157.785 329.829C157.123 328.666 156.774 327.347 156.773 326.003V240.535H153C153.002 239.783 153.195 239.044 153.561 238.389C153.927 237.734 154.453 237.186 155.088 236.797V236.797Z" fill="#E6E6E6"/>
<path d="M256.766 293.533C257.295 294.598 257.571 295.772 257.573 296.964V379.396L249.192 384.301L246.053 382.52V300.322L256.766 293.533Z" fill="#E0E0E0"/>
<path d="M253.8 381.6V387.075C253.798 387.515 253.681 387.946 253.463 388.326C253.245 388.706 252.932 389.021 252.556 389.24C252.18 389.458 251.753 389.573 251.32 389.572C250.886 389.572 250.46 389.456 250.085 389.236L156.773 334.836C155.626 334.164 154.674 333.197 154.012 332.034C153.35 330.87 153.001 329.551 153 328.208V322.66L253.8 381.6Z" fill="#F0F0F0"/>
<path d="M153 240.316C153 239.875 153.114 239.442 153.332 239.06C153.549 238.678 153.862 238.361 154.238 238.141C154.615 237.92 155.042 237.804 155.477 237.804C155.911 237.804 156.339 237.92 156.715 238.141L250.027 292.555C251.176 293.225 252.129 294.191 252.792 295.355C253.454 296.519 253.802 297.84 253.8 299.183V381.6L153 322.602" fill="#F0F0F0"/>
<path d="M206.726 336.515L188.942 327.405L193.291 324.397L210.413 333.522L206.726 336.515Z" fill="#E0E0E0"/>
<path d="M188.942 327.39L178.661 368.825C178.503 369.468 178.558 370.145 178.819 370.752C179.079 371.359 179.53 371.862 180.101 372.183L201.355 384.301C201.355 384.301 207.965 337.143 206.741 336.515L188.942 327.39Z" fill="#E6E6E6"/>
<path d="M212.544 375.03L205.229 370.533L203.818 380.593L212.544 375.03Z" fill="#F0F0F0"/>
<path d="M206.726 336.515L200.16 382.038C200.098 382.453 200.156 382.877 200.329 383.258C200.502 383.639 200.781 383.96 201.131 384.182C201.482 384.404 201.889 384.517 202.303 384.507C202.716 384.497 203.118 384.365 203.457 384.126L211.896 378.286C212.202 378.079 212.452 377.799 212.626 377.471C212.799 377.142 212.89 376.775 212.889 376.403V375.527C212.89 375.406 212.858 375.287 212.797 375.184C212.735 375.08 212.647 374.996 212.541 374.94C212.435 374.884 212.316 374.859 212.198 374.867C212.079 374.875 211.964 374.917 211.867 374.986L203.861 380.549L210.456 333.493L206.726 336.515Z" fill="#E0E0E0"/>
<path d="M206.266 313.316C206.266 317.302 203.501 318.922 200.088 316.922C198.295 315.733 196.803 314.133 195.732 312.251C194.662 310.369 194.043 308.258 193.925 306.089C193.925 302.103 196.69 300.483 200.088 302.483C201.885 303.669 203.381 305.268 204.455 307.15C205.528 309.033 206.149 311.145 206.266 313.316Z" fill="#E0E0E0"/>
<path d="M136.714 539.353L193.262 506.518L148.363 481.42L93.7871 513.993L136.714 539.353Z" fill="white"/>
<path d="M138.672 533.878C138.581 533.874 138.492 533.849 138.413 533.805L105.581 514.402C105.515 514.373 105.456 514.331 105.408 514.278C105.359 514.224 105.323 514.161 105.3 514.092C105.278 514.024 105.27 513.951 105.278 513.879C105.285 513.807 105.308 513.737 105.344 513.674C105.38 513.612 105.428 513.558 105.486 513.516C105.545 513.474 105.611 513.445 105.681 513.431C105.751 513.417 105.823 513.418 105.893 513.434C105.963 513.451 106.028 513.482 106.085 513.526L138.917 532.9C138.975 532.933 139.025 532.978 139.066 533.031C139.107 533.085 139.137 533.146 139.154 533.211C139.172 533.276 139.176 533.344 139.168 533.411C139.159 533.478 139.137 533.542 139.104 533.601C139.063 533.682 139.001 533.75 138.925 533.799C138.849 533.848 138.762 533.875 138.672 533.878V533.878Z" fill="#E0E0E0"/>
<path d="M144 530.564C143.92 530.585 143.836 530.585 143.755 530.564L110.966 511.088C110.91 511.054 110.861 511.01 110.822 510.958C110.783 510.905 110.754 510.845 110.738 510.781C110.722 510.717 110.719 510.651 110.728 510.586C110.738 510.52 110.76 510.458 110.794 510.401C110.825 510.343 110.868 510.292 110.919 510.251C110.97 510.21 111.029 510.179 111.092 510.162C111.156 510.144 111.222 510.139 111.286 510.148C111.351 510.156 111.414 510.178 111.47 510.212L144.317 529.615C144.431 529.685 144.514 529.798 144.546 529.929C144.579 530.061 144.558 530.2 144.49 530.316C144.442 530.402 144.369 530.472 144.282 530.516C144.195 530.56 144.097 530.577 144 530.564V530.564Z" fill="#E0E0E0"/>
<path d="M149.299 527.396C149.219 527.417 149.134 527.417 149.054 527.396L116.208 507.934C116.093 507.864 116.011 507.751 115.978 507.62C115.946 507.488 115.966 507.349 116.035 507.233C116.067 507.175 116.109 507.124 116.161 507.083C116.212 507.041 116.271 507.011 116.334 506.993C116.397 506.976 116.463 506.971 116.528 506.98C116.593 506.988 116.655 507.01 116.712 507.043L149.558 526.461C149.657 526.514 149.735 526.6 149.78 526.705C149.824 526.809 149.831 526.925 149.801 527.035C149.771 527.144 149.704 527.24 149.613 527.305C149.522 527.371 149.411 527.403 149.299 527.396V527.396Z" fill="#E0E0E0"/>
<path d="M154.699 524.14C154.608 524.136 154.52 524.111 154.44 524.067L121.608 504.664C121.494 504.594 121.411 504.482 121.376 504.351C121.341 504.221 121.357 504.082 121.421 503.963C121.453 503.904 121.497 503.852 121.55 503.811C121.603 503.77 121.664 503.74 121.729 503.724C121.794 503.708 121.861 503.705 121.927 503.716C121.993 503.727 122.056 503.751 122.112 503.788L154.944 523.191C155.001 523.223 155.052 523.266 155.092 523.318C155.133 523.37 155.163 523.43 155.18 523.494C155.198 523.558 155.202 523.625 155.194 523.691C155.186 523.756 155.164 523.82 155.131 523.877C155.088 523.956 155.026 524.021 154.95 524.067C154.874 524.113 154.787 524.138 154.699 524.14V524.14Z" fill="#E0E0E0"/>
<path d="M160.085 520.782C159.998 520.78 159.914 520.755 159.84 520.709L126.994 501.306C126.879 501.236 126.796 501.123 126.764 500.991C126.732 500.86 126.752 500.721 126.821 500.605C126.852 500.546 126.895 500.495 126.946 500.454C126.998 500.413 127.058 500.383 127.121 500.367C127.185 500.351 127.251 500.348 127.316 500.358C127.381 500.369 127.442 500.393 127.498 500.43L160.344 519.833C160.4 519.866 160.449 519.91 160.489 519.963C160.528 520.016 160.556 520.075 160.572 520.139C160.588 520.203 160.592 520.27 160.582 520.335C160.573 520.4 160.55 520.463 160.517 520.519C160.474 520.598 160.411 520.663 160.335 520.709C160.26 520.755 160.173 520.781 160.085 520.782Z" fill="#E0E0E0"/>
<path d="M165.485 517.468C165.394 517.464 165.305 517.439 165.226 517.395L132.394 497.991C132.328 497.963 132.269 497.921 132.22 497.867C132.172 497.814 132.136 497.751 132.113 497.682C132.091 497.613 132.083 497.54 132.09 497.468C132.098 497.396 132.12 497.327 132.156 497.264C132.192 497.202 132.241 497.147 132.299 497.105C132.357 497.063 132.424 497.034 132.494 497.02C132.564 497.006 132.636 497.007 132.706 497.024C132.775 497.04 132.841 497.071 132.898 497.115L165.73 516.519C165.787 516.551 165.837 516.594 165.878 516.646C165.919 516.698 165.949 516.758 165.966 516.822C165.984 516.886 165.988 516.953 165.98 517.018C165.971 517.084 165.95 517.148 165.917 517.205C165.873 517.282 165.81 517.347 165.734 517.393C165.659 517.439 165.573 517.465 165.485 517.468V517.468Z" fill="#E0E0E0"/>
<path d="M170.87 514.154C170.784 514.152 170.699 514.126 170.626 514.081L137.779 494.677C137.665 494.607 137.582 494.494 137.55 494.363C137.517 494.232 137.538 494.093 137.606 493.976C137.639 493.919 137.683 493.87 137.734 493.83C137.786 493.79 137.846 493.761 137.909 493.745C137.972 493.729 138.037 493.725 138.101 493.735C138.166 493.744 138.228 493.767 138.283 493.801L171.13 513.205C171.186 513.238 171.235 513.282 171.274 513.335C171.313 513.387 171.342 513.447 171.358 513.511C171.374 513.575 171.377 513.641 171.368 513.707C171.358 513.772 171.336 513.834 171.302 513.891C171.262 513.971 171.2 514.039 171.124 514.085C171.047 514.132 170.959 514.155 170.87 514.154V514.154Z" fill="#E0E0E0"/>
<path d="M176.27 510.839C176.18 510.836 176.091 510.811 176.011 510.766L143.179 491.363C143.113 491.335 143.054 491.292 143.006 491.239C142.958 491.186 142.921 491.122 142.899 491.054C142.876 490.985 142.869 490.912 142.876 490.84C142.883 490.768 142.906 490.698 142.942 490.636C142.978 490.573 143.027 490.519 143.085 490.477C143.143 490.435 143.209 490.406 143.279 490.392C143.35 490.378 143.422 490.379 143.491 490.395C143.561 490.412 143.626 490.443 143.683 490.487L176.515 509.89C176.573 509.924 176.624 509.968 176.665 510.022C176.705 510.075 176.735 510.136 176.753 510.201C176.77 510.266 176.775 510.334 176.766 510.401C176.757 510.468 176.736 510.533 176.702 510.591C176.658 510.667 176.594 510.73 176.519 510.773C176.443 510.817 176.357 510.839 176.27 510.839Z" fill="#E0E0E0"/>
<path d="M181.656 507.525C181.569 507.523 181.485 507.498 181.411 507.452L148.565 488.049C148.45 487.979 148.368 487.866 148.335 487.735C148.303 487.603 148.323 487.464 148.392 487.348C148.424 487.291 148.468 487.241 148.52 487.201C148.572 487.162 148.631 487.133 148.694 487.117C148.757 487.1 148.823 487.097 148.887 487.106C148.951 487.116 149.013 487.139 149.069 487.173L181.915 506.62C182.03 506.69 182.112 506.803 182.144 506.934C182.177 507.066 182.156 507.205 182.088 507.321C182.039 507.389 181.974 507.444 181.898 507.48C181.822 507.516 181.739 507.531 181.656 507.525V507.525Z" fill="#E0E0E0"/>
<path d="M93.96 513.832L136.872 539.193V578.175L93.96 554.143V513.832Z" fill="#FAFAFA"/>
<path d="M136.872 539.193L193.421 506.357V544.887L136.872 578.175V539.193Z" fill="#E6E6E6"/>
<path d="M127.642 543.003L136.872 548.464L156.845 536.871L136.872 551.427L127.642 543.003Z" fill="#E0E0E0"/>
<path d="M127.642 556.567L136.872 562.027L148.162 555.486L136.872 564.991L127.642 556.567Z" fill="#E0E0E0"/>
<path d="M142.243 550.289L149.299 552.42L154.699 544.142L142.243 550.289Z" fill="#E0E0E0"/>
<path d="M142.243 550.289L163.541 537.995L152.899 550.289H142.243Z" fill="white"/>
<path d="M174.125 523.863L179.122 525.381L182.938 519.512L174.125 523.863Z" fill="#E0E0E0"/>
<path d="M174.125 523.863L189.202 515.161L181.656 523.863H174.125Z" fill="white"/>
<path d="M163.339 552.844L168.336 554.362L172.152 548.493L163.339 552.844Z" fill="#E0E0E0"/>
<path d="M163.339 552.844L178.416 544.142L170.87 552.844H163.339Z" fill="white"/>
<path d="M224.251 628.939L174.888 599.739C174.777 599.673 174.686 599.579 174.622 599.467C174.558 599.354 174.525 599.226 174.525 599.096C174.525 598.967 174.558 598.839 174.622 598.726C174.686 598.614 174.777 598.52 174.888 598.454L229.608 564.261L224.251 628.939Z" fill="#313131"/>
<path opacity="0.4" d="M224.251 628.939L174.888 599.739C174.777 599.673 174.686 599.579 174.622 599.467C174.558 599.354 174.525 599.226 174.525 599.096C174.525 598.967 174.558 598.839 174.622 598.726C174.686 598.614 174.777 598.52 174.888 598.454L229.608 564.261L224.251 628.939Z" fill="#313131"/>
<path d="M224.251 628.939L279.288 596.629V581.941L224.251 614.12V628.939Z" fill="#313131"/>
<path opacity="0.2" d="M224.251 628.939L279.288 596.629V581.941L224.251 614.12V628.939Z" fill="#313131"/>
<path d="M268.545 598.892L246.816 611.623C245.376 612.47 244.195 611.623 244.195 609.608C244.208 608.615 244.453 607.638 244.908 606.758C245.363 605.877 246.017 605.118 246.816 604.542L268.545 591.826C269.985 590.979 271.166 591.826 271.166 593.826C271.15 594.819 270.904 595.794 270.449 596.674C269.994 597.554 269.342 598.313 268.545 598.892Z" fill="#E6E6E6"/>
<path d="M240.998 611.477C240.941 612.542 240.638 613.577 240.112 614.501C239.587 615.424 238.855 616.209 237.974 616.792C236.318 617.77 234.965 616.967 234.965 615.025C235.022 613.962 235.323 612.928 235.846 612.005C236.369 611.082 237.098 610.296 237.974 609.711C239.645 608.732 240.998 609.521 240.998 611.477Z" fill="#E6E6E6"/>
<path d="M224.251 614.12L175.075 590.687C174.958 590.623 174.859 590.529 174.791 590.413C174.722 590.297 174.686 590.165 174.686 590.03C174.686 589.895 174.722 589.762 174.791 589.647C174.859 589.531 174.958 589.436 175.075 589.373L227.808 557.574C228.105 557.392 228.443 557.288 228.79 557.273C229.138 557.258 229.483 557.331 229.795 557.486L279.36 581.941L224.251 614.12Z" fill="#313131"/>
<path d="M178.243 592.205V598.498L218.981 621.858V611.609L178.243 592.205Z" fill="#F5F5F5"/>
<path d="M218.981 621.858L224.251 618.529V614.12L218.981 611.609V621.858Z" fill="#E0E0E0"/>
<path d="M174.657 584.613V568.334H264.398C264.715 568.334 274.349 573.415 278.611 575.634C278.803 575.743 278.963 575.902 279.074 576.095C279.185 576.287 279.244 576.506 279.244 576.729C279.244 576.952 279.185 577.171 279.074 577.364C278.963 577.556 278.803 577.715 278.611 577.824L225.432 608.309C225.059 608.525 224.639 608.644 224.21 608.657C223.78 608.67 223.354 608.575 222.969 608.382L174.657 584.613Z" fill="#313131"/>
<path opacity="0.4" d="M174.657 584.613V568.334H264.398C264.715 568.334 274.349 573.415 278.611 575.634C278.803 575.743 278.963 575.902 279.074 576.095C279.185 576.287 279.244 576.506 279.244 576.729C279.244 576.952 279.185 577.171 279.074 577.364C278.963 577.556 278.803 577.715 278.611 577.824L225.432 608.309C225.059 608.525 224.639 608.644 224.21 608.657C223.78 608.67 223.354 608.575 222.969 608.382L174.657 584.613Z" fill="#313131"/>
<path d="M224.251 604.513L275.17 575.474V569.166L224.251 596.629V604.513Z" fill="#E0E0E0"/>
<path d="M174.657 584.613L187.977 576.715L174.657 568.334V584.613Z" fill="#313131"/>
<path opacity="0.6" d="M174.657 584.613L187.977 576.715L174.657 568.334V584.613Z" fill="#313131"/>
<path d="M183.067 573.619V582.613L224.251 604.513V596.629L183.067 573.619Z" fill="#F5F5F5"/>
<path d="M174.657 568.334L222.537 597.257C223.058 597.577 223.651 597.755 224.259 597.773C224.868 597.791 225.47 597.648 226.008 597.359L278.798 569.4C278.98 569.29 279.131 569.134 279.236 568.947C279.34 568.76 279.395 568.549 279.395 568.334C279.395 568.119 279.34 567.908 279.236 567.721C279.131 567.535 278.98 567.378 278.798 567.268L230.63 535.528L174.657 568.334Z" fill="#313131"/>
<path d="M224.251 592.205L174.888 563.005C174.777 562.94 174.686 562.846 174.622 562.733C174.558 562.62 174.525 562.493 174.525 562.363C174.525 562.233 174.558 562.105 174.622 561.993C174.686 561.88 174.777 561.786 174.888 561.72L229.608 527.527L224.251 592.205Z" fill="#313131"/>
<path opacity="0.4" d="M224.251 592.205L174.888 563.005C174.777 562.94 174.686 562.846 174.622 562.733C174.558 562.62 174.525 562.493 174.525 562.363C174.525 562.233 174.558 562.105 174.622 561.993C174.686 561.88 174.777 561.786 174.888 561.72L229.608 527.527L224.251 592.205Z" fill="#313131"/>
<path d="M224.251 592.205L279.288 559.895V545.208L224.251 577.386V592.205Z" fill="#313131"/>
<path opacity="0.2" d="M224.251 592.205L279.288 559.895V545.208L224.251 577.386V592.205Z" fill="#313131"/>
<path d="M268.545 562.1L246.816 574.817C245.376 575.663 244.195 574.817 244.195 572.816C244.208 571.823 244.453 570.846 244.908 569.966C245.363 569.085 246.017 568.326 246.816 567.75L268.545 555.019C269.985 554.172 271.166 555.019 271.166 557.034C271.15 558.027 270.904 559.003 270.449 559.882C269.994 560.762 269.342 561.521 268.545 562.1V562.1Z" fill="#E6E6E6"/>
<path d="M240.998 574.744C240.944 575.807 240.641 576.841 240.115 577.762C239.59 578.684 238.856 579.465 237.974 580.043C236.318 581.022 234.965 580.233 234.965 578.277C235.022 577.216 235.323 576.184 235.846 575.263C236.369 574.342 237.098 573.559 237.974 572.977C239.645 571.999 240.998 572.787 240.998 574.744Z" fill="#E6E6E6"/>
<path d="M224.251 577.386L175.075 553.953C174.958 553.888 174.86 553.791 174.792 553.674C174.725 553.558 174.689 553.425 174.689 553.289C174.689 553.153 174.725 553.02 174.792 552.903C174.86 552.787 174.958 552.69 175.075 552.625L227.808 520.826C228.106 520.646 228.445 520.545 228.792 520.532C229.139 520.519 229.484 520.595 229.795 520.753L279.36 545.208L224.251 577.386Z" fill="#313131"/>
<path d="M178.243 555.457V561.764L218.981 585.124V574.875L178.243 555.457Z" fill="#F5F5F5"/>
<path d="M218.981 585.124L224.251 581.781V577.386L218.981 574.875V585.124Z" fill="#E0E0E0"/>
<path d="M174.729 546.814V530.52H264.47C264.773 530.52 274.406 535.616 278.669 537.82C278.861 537.927 279.021 538.085 279.133 538.276C279.244 538.467 279.303 538.686 279.303 538.908C279.303 539.13 279.244 539.349 279.133 539.54C279.021 539.731 278.861 539.889 278.669 539.996L225.475 570.495C225.096 570.692 224.677 570.795 224.251 570.795C223.825 570.795 223.406 570.692 223.027 570.495L174.729 546.814Z" fill="#313131"/>
<path opacity="0.4" d="M174.729 546.814V530.52H264.47C264.773 530.52 274.406 535.616 278.669 537.82C278.861 537.927 279.021 538.085 279.133 538.276C279.244 538.467 279.303 538.686 279.303 538.908C279.303 539.13 279.244 539.349 279.133 539.54C279.021 539.731 278.861 539.889 278.669 539.996L225.475 570.495C225.096 570.692 224.677 570.795 224.251 570.795C223.825 570.795 223.406 570.692 223.027 570.495L174.729 546.814Z" fill="#313131"/>
<path d="M224.309 566.699L275.241 537.66V531.352L224.309 558.83V566.699Z" fill="#E0E0E0"/>
<path d="M174.729 546.814L188.035 538.915L174.729 530.52V546.814Z" fill="#313131"/>
<path opacity="0.6" d="M174.729 546.814L188.035 538.915L174.729 530.52V546.814Z" fill="#313131"/>
<path d="M183.125 535.82V544.814L224.309 566.699V558.83L183.125 535.82Z" fill="#F5F5F5"/>
<path d="M174.729 530.52L222.609 559.457C223.131 559.775 223.724 559.951 224.332 559.969C224.939 559.987 225.541 559.846 226.08 559.56L278.87 531.528C279.056 531.424 279.212 531.273 279.323 531.09C279.434 530.907 279.497 530.697 279.504 530.483C279.511 530.268 279.463 530.054 279.365 529.864C279.266 529.673 279.121 529.512 278.942 529.396L230.76 497.641L174.729 530.52Z" fill="#313131"/>
<path d="M224.309 554.391L174.96 525.191C174.849 525.126 174.758 525.032 174.694 524.919C174.63 524.806 174.597 524.679 174.597 524.549C174.597 524.419 174.63 524.291 174.694 524.179C174.758 524.066 174.849 523.972 174.96 523.906L229.68 489.728L224.309 554.391Z" fill="#313131"/>
<path opacity="0.4" d="M224.309 554.391L174.96 525.191C174.849 525.126 174.758 525.032 174.694 524.919C174.63 524.806 174.597 524.679 174.597 524.549C174.597 524.419 174.63 524.291 174.694 524.179C174.758 524.066 174.849 523.972 174.96 523.906L229.68 489.728L224.309 554.391Z" fill="#313131"/>
<path d="M224.309 554.391L279.345 522.081V507.408L224.309 539.572V554.391Z" fill="#313131"/>
<path opacity="0.2" d="M224.309 554.391L279.345 522.081V507.408L224.309 539.572V554.391Z" fill="#313131"/>
<path d="M268.617 524.359L246.873 537.076C245.433 537.922 244.267 537.076 244.267 535.075C244.281 534.081 244.524 533.104 244.976 532.222C245.429 531.34 246.079 530.577 246.873 529.995L268.617 517.278C270.057 516.431 271.224 517.278 271.224 519.278C271.21 520.272 270.967 521.25 270.515 522.132C270.062 523.014 269.412 523.777 268.617 524.359V524.359Z" fill="#E6E6E6"/>
<path d="M241.07 536.944C241.012 538.006 240.708 539.04 240.183 539.96C239.657 540.881 238.925 541.663 238.046 542.244C236.376 543.222 235.022 542.434 235.022 540.477C235.08 539.413 235.383 538.377 235.909 537.454C236.434 536.531 237.166 535.746 238.046 535.163C239.717 534.199 241.07 534.988 241.07 536.944Z" fill="#E6E6E6"/>
<path d="M224.309 539.572L175.147 516.212C175.03 516.147 174.932 516.05 174.865 515.934C174.797 515.817 174.761 515.684 174.761 515.548C174.761 515.412 174.797 515.279 174.865 515.162C174.932 515.046 175.03 514.949 175.147 514.884L227.88 483.085C228.179 482.906 228.516 482.805 228.863 482.79C229.209 482.774 229.554 482.846 229.867 482.997L279.36 507.408L224.309 539.572Z" fill="#313131"/>
<path d="M178.315 517.658V523.95L219.053 547.325V537.061L178.315 517.658Z" fill="#F5F5F5"/>
<path d="M219.053 547.325L224.309 543.981V539.572L219.053 537.061V547.325Z" fill="#E0E0E0"/>
<path d="M222.941 497.261L279.489 464.426L234.576 439.329L180.014 471.901L222.941 497.261Z" fill="#FAFAFA"/>
<path d="M224.885 491.772C224.804 491.792 224.72 491.792 224.64 491.772L191.808 472.31C191.75 472.277 191.699 472.232 191.658 472.179C191.618 472.125 191.588 472.064 191.57 471.999C191.553 471.934 191.548 471.866 191.557 471.799C191.566 471.732 191.587 471.668 191.621 471.609C191.653 471.552 191.697 471.502 191.749 471.463C191.801 471.423 191.86 471.394 191.923 471.378C191.986 471.361 192.052 471.358 192.116 471.368C192.18 471.377 192.242 471.4 192.298 471.434L225.144 490.837C225.201 490.869 225.252 490.913 225.293 490.965C225.333 491.017 225.363 491.076 225.381 491.14C225.398 491.204 225.403 491.271 225.394 491.337C225.386 491.403 225.364 491.466 225.331 491.524C225.283 491.599 225.217 491.662 225.139 491.705C225.061 491.749 224.974 491.771 224.885 491.772V491.772Z" fill="#E0E0E0"/>
<path d="M230.285 488.458C230.205 488.479 230.12 488.479 230.04 488.458L197.194 469.054C197.079 468.984 196.996 468.872 196.961 468.742C196.927 468.611 196.943 468.472 197.006 468.353C197.039 468.294 197.083 468.243 197.136 468.202C197.189 468.161 197.25 468.131 197.315 468.115C197.379 468.098 197.447 468.095 197.513 468.106C197.578 468.117 197.641 468.142 197.697 468.178L230.53 487.582C230.627 487.634 230.704 487.719 230.748 487.821C230.792 487.924 230.801 488.039 230.773 488.147C230.744 488.256 230.681 488.351 230.592 488.418C230.503 488.485 230.395 488.519 230.285 488.516V488.458Z" fill="#E0E0E0"/>
<path d="M235.526 485.304C235.446 485.325 235.362 485.325 235.282 485.304L202.435 465.901C202.321 465.831 202.238 465.718 202.206 465.587C202.173 465.455 202.194 465.316 202.262 465.2C202.295 465.143 202.339 465.093 202.391 465.053C202.442 465.014 202.502 464.985 202.565 464.968C202.628 464.952 202.693 464.949 202.757 464.958C202.822 464.968 202.884 464.991 202.939 465.025L235.786 484.428C235.9 484.498 235.983 484.611 236.015 484.742C236.047 484.874 236.027 485.013 235.958 485.129C235.906 485.192 235.84 485.241 235.764 485.272C235.689 485.302 235.607 485.313 235.526 485.304V485.304Z" fill="#E0E0E0"/>
<path d="M240.926 481.99C240.836 481.986 240.747 481.961 240.667 481.917L207.835 462.513C207.778 462.482 207.727 462.438 207.687 462.386C207.646 462.334 207.616 462.274 207.599 462.21C207.581 462.146 207.576 462.08 207.585 462.014C207.593 461.948 207.615 461.885 207.648 461.827C207.681 461.769 207.725 461.717 207.777 461.676C207.83 461.634 207.89 461.604 207.955 461.586C208.019 461.569 208.086 461.564 208.152 461.573C208.218 461.582 208.282 461.604 208.339 461.637L241.171 481.041C241.285 481.111 241.368 481.223 241.403 481.353C241.438 481.484 241.422 481.623 241.358 481.742C241.313 481.816 241.249 481.878 241.174 481.922C241.098 481.965 241.013 481.988 240.926 481.99V481.99Z" fill="#E0E0E0"/>
<path d="M246.312 478.676C246.224 478.681 246.138 478.655 246.067 478.603L213.221 459.199C213.164 459.166 213.115 459.122 213.076 459.069C213.037 459.017 213.008 458.957 212.992 458.893C212.976 458.829 212.973 458.763 212.982 458.697C212.992 458.632 213.014 458.569 213.048 458.513C213.079 458.455 213.122 458.404 213.173 458.362C213.225 458.321 213.284 458.291 213.347 458.273C213.41 458.255 213.476 458.251 213.541 458.259C213.606 458.268 213.668 458.29 213.725 458.323L246.571 477.727C246.686 477.796 246.768 477.909 246.8 478.041C246.833 478.172 246.812 478.311 246.744 478.427C246.7 478.504 246.637 478.568 246.561 478.611C246.485 478.655 246.399 478.677 246.312 478.676V478.676Z" fill="#E0E0E0"/>
<path d="M251.698 475.361C251.618 475.387 251.532 475.387 251.453 475.361L218.621 455.958C218.563 455.926 218.513 455.883 218.472 455.831C218.432 455.779 218.402 455.719 218.384 455.655C218.367 455.591 218.362 455.524 218.371 455.458C218.379 455.393 218.4 455.329 218.434 455.272C218.503 455.156 218.613 455.072 218.742 455.036C218.87 455.001 219.008 455.017 219.125 455.082L252 474.412C252.114 474.482 252.197 474.594 252.232 474.725C252.267 474.855 252.251 474.994 252.187 475.113C252.135 475.196 252.062 475.262 251.976 475.306C251.89 475.35 251.794 475.369 251.698 475.361Z" fill="#E0E0E0"/>
<path d="M257.097 472.047C257.01 472.053 256.923 472.027 256.853 471.974L224.006 452.6C223.949 452.568 223.898 452.525 223.858 452.473C223.817 452.421 223.787 452.361 223.77 452.297C223.752 452.233 223.748 452.166 223.756 452.1C223.765 452.035 223.786 451.971 223.819 451.914C223.888 451.798 223.998 451.714 224.127 451.678C224.256 451.643 224.393 451.659 224.51 451.724L257.342 471.127C257.4 471.161 257.451 471.205 257.492 471.259C257.533 471.312 257.563 471.373 257.58 471.438C257.597 471.503 257.602 471.571 257.593 471.638C257.585 471.705 257.563 471.77 257.529 471.828C257.482 471.9 257.418 471.957 257.342 471.996C257.266 472.034 257.182 472.052 257.097 472.047V472.047Z" fill="#E0E0E0"/>
<path d="M262.497 468.733C262.412 468.754 262.323 468.754 262.238 468.733L229.406 449.315C229.349 449.283 229.298 449.24 229.258 449.188C229.217 449.136 229.187 449.076 229.17 449.012C229.152 448.948 229.147 448.881 229.156 448.815C229.164 448.749 229.186 448.686 229.219 448.629C229.288 448.513 229.398 448.429 229.527 448.393C229.656 448.358 229.793 448.374 229.91 448.439L262.742 467.842C262.856 467.912 262.939 468.024 262.974 468.155C263.009 468.285 262.993 468.424 262.929 468.543C262.877 468.607 262.811 468.658 262.736 468.691C262.661 468.724 262.579 468.738 262.497 468.733V468.733Z" fill="#E0E0E0"/>
<path d="M267.84 465.419C267.755 465.439 267.666 465.439 267.581 465.419L234.749 446.015C234.691 445.982 234.64 445.937 234.6 445.884C234.559 445.83 234.529 445.769 234.512 445.704C234.495 445.639 234.49 445.571 234.499 445.504C234.507 445.438 234.528 445.373 234.562 445.315C234.595 445.256 234.639 445.205 234.691 445.164C234.744 445.122 234.804 445.092 234.868 445.075C234.933 445.057 235 445.052 235.065 445.061C235.131 445.07 235.195 445.091 235.253 445.125L268.085 464.528C268.143 464.562 268.193 464.606 268.234 464.659C268.275 464.713 268.305 464.774 268.322 464.839C268.34 464.904 268.344 464.972 268.336 465.039C268.327 465.106 268.305 465.171 268.272 465.229C268.221 465.295 268.155 465.347 268.08 465.38C268.004 465.413 267.922 465.427 267.84 465.419V465.419Z" fill="#E0E0E0"/>
<path d="M180.173 471.726L223.099 497.101V536.083L180.173 512.051V471.726Z" fill="#F0F0F0"/>
<path d="M223.099 497.101L279.648 464.251V502.795L223.099 536.083V497.101Z" fill="#E6E6E6"/>
<path d="M213.869 500.911L223.099 506.357L243.072 494.765L223.099 509.321L213.869 500.911Z" fill="#E0E0E0"/>
<path d="M213.869 514.475L223.099 519.935L234.374 513.38L223.099 522.899L213.869 514.475Z" fill="#E0E0E0"/>
<path d="M228.47 508.197L235.526 510.328L240.926 502.05L228.47 508.197Z" fill="#E0E0E0"/>
<path d="M228.47 508.197L249.768 495.889L239.112 508.197H228.47Z" fill="white"/>
<path d="M260.337 481.771L265.334 483.275L269.15 477.42L260.337 481.771Z" fill="#E0E0E0"/>
<path d="M260.337 481.771L275.414 473.055L267.883 481.771H260.337Z" fill="white"/>
<path d="M249.566 510.752L254.563 512.256L258.379 506.401L249.566 510.752Z" fill="#E0E0E0"/>
<path d="M249.566 510.752L264.643 502.05L257.098 510.752H249.566Z" fill="white"/>
<path d="M195.581 511.964L191.923 513.073L189.115 508.766L195.581 511.964Z" fill="#E0E0E0"/>
<path d="M195.581 511.964L184.521 505.569L190.051 511.964H195.581Z" fill="white"/>
<path d="M209.981 496.663L204.984 498.167L201.168 492.312L209.981 496.663Z" fill="#E0E0E0"/>
<path d="M209.981 496.663L194.904 487.961L202.449 496.663H209.981Z" fill="white"/>
<path d="M561.557 575.693L556.762 573.663L558 567.765L561.557 575.693Z" fill="#37474F"/>
<path d="M566.957 559.822L569.002 569.093L561.557 575.693L558 567.765L566.957 559.822Z" fill="#455A64"/>
<path d="M546.422 550.201C545.002 554.043 543.989 558.027 543.398 562.085C542.406 567.84 539.773 573.175 535.824 577.43C532.325 580.7 526.075 588.234 536.918 589.577C548.136 591.037 557.539 581.576 557.683 576.364C557.827 571.152 559.195 567.064 562.003 564.684C564.811 562.304 567 559.866 567 559.866C567 559.866 562.003 541.675 557.726 542.697C553.45 543.719 546.422 550.201 546.422 550.201Z" fill="#263238"/>
<path d="M550.757 532.404C547.531 527.469 543.888 521.658 540.951 516.344C534.039 503.729 523.57 483.698 513.303 479.698V394.653L473.875 392.813C473.875 392.813 460.915 439.402 479.333 476.851C492.495 503.671 521.093 531.63 536.199 545.325C540.922 544.58 549.562 541.821 550.757 532.404Z" fill="#455A64"/>
<path d="M558.72 544.127C558.72 544.127 555.12 539.09 550.742 532.447C549.547 541.864 540.907 544.58 536.184 545.368C542.174 550.785 546.077 553.982 546.077 553.982C546.077 553.982 558.922 555.749 558.72 544.127Z" fill="#945959"/>
<path d="M477.85 473.566L488.419 420.684C488.419 420.684 480.528 416.012 480.528 403.661C480.528 403.661 479.535 415.574 484.848 424.188L475.762 468.397C476.395 470.12 477.101 471.857 477.85 473.566Z" fill="#37474F"/>
<path d="M513.302 479.654V476.588L508.32 479.858L499.133 494.268L498.269 505.583C501.883 510.095 505.656 514.475 509.414 518.621L510.163 500.079L517.075 481.771C515.915 480.9 514.646 480.189 513.302 479.654V479.654Z" fill="#37474F"/>
<path d="M477.029 620.018L472.162 617.215L477.029 610.674V620.018Z" fill="#37474F"/>
<path d="M484.114 607.477V615.755L477.029 620.018V610.674L484.114 607.477Z" fill="#455A64"/>
<path d="M468.734 589.928C468.734 589.928 465.97 588.789 463.334 598.527C460.699 608.265 449.784 614.587 447.019 616.281C444.254 617.974 436.939 625.041 447.019 628.691C457.099 632.341 469.93 626.968 472.939 620.821C475.949 614.675 477.49 610.937 484.099 607.477V595.052C484.099 592.658 481.622 590.92 480.053 590.512C478.483 590.103 468.734 589.928 468.734 589.928Z" fill="#263238"/>
<path d="M524.952 392.813L480.528 389.645V403.661C480.528 416.012 488.419 420.684 488.419 420.684L474.984 487.844C474.334 491.082 473.892 494.36 473.659 497.656L467.827 581.927C470.025 583.864 472.681 585.191 475.535 585.779C478.388 586.368 481.344 586.197 484.114 585.285C487.138 575.897 492.293 560.217 498.37 543.076C505.685 522.388 506.016 508.036 505.728 502.196C505.619 500.15 505.979 498.106 506.779 496.225C509.198 490.531 515.088 476.69 524.952 453.345C543.326 409.983 524.952 392.813 524.952 392.813Z" fill="#455A64"/>
<path d="M467.827 581.985L466.992 594.089C467.741 595.321 468.807 596.323 470.076 596.987C471.344 597.651 472.768 597.951 474.192 597.855C479.462 597.855 481.306 594.395 481.306 594.395C481.306 594.395 482.357 591.023 484.186 585.343C481.406 586.269 478.436 586.447 475.568 585.858C472.701 585.269 470.033 583.935 467.827 581.985V581.985Z" fill="#945959"/>
<path d="M484.949 327.945C484.949 327.945 472.536 328.427 468.202 337.654C463.867 346.881 457.675 365.526 457.675 365.526L474.322 369.322L484.949 327.945Z" fill="#313131"/>
<path opacity="0.2" d="M484.949 327.945C484.949 327.945 472.536 328.427 468.202 337.654C463.867 346.881 457.675 365.526 457.675 365.526L474.322 369.322L484.949 327.945Z" fill="white"/>
<path d="M511.488 329.843L524.952 332.208V362.868L520.747 379.162C520.747 379.162 521.539 387.922 524.952 392.769C524.952 392.769 500.99 411.194 473.875 392.769C473.875 392.769 474.927 376.709 474.927 372.212C474.927 372.212 465.739 366.606 466.647 358.065C467.554 349.524 484.949 327.901 484.949 327.901L494.511 327.77L511.488 329.843Z" fill="#313131"/>
<path opacity="0.4" d="M511.488 329.843L524.952 332.208V362.868L520.747 379.162C520.747 379.162 521.539 387.922 524.952 392.769C524.952 392.769 500.99 411.194 473.875 392.769C473.875 392.769 474.927 376.709 474.927 372.212C474.927 372.212 465.739 366.606 466.647 358.065C467.554 349.524 484.949 327.901 484.949 327.901L494.511 327.77L511.488 329.843Z" fill="white"/>
<path d="M488.347 267.18C488.347 267.18 476.712 263.092 473.875 275.166C471.038 287.24 479.794 298.95 466.675 302.906C466.675 302.906 474.408 309.432 481.205 297.256L486.965 322.076C486.965 322.076 486.965 323.434 484.935 324.47C484.935 324.47 518.055 331.916 524.319 315.199C525.199 316.163 525.8 317.355 526.054 318.644C526.308 319.932 526.206 321.266 525.759 322.499C525.759 322.499 535.507 318.499 532.771 305.695C532.771 305.695 540.475 305.476 542.304 299.11C542.304 299.11 529.978 299.709 530.05 285.97C530.136 270.027 521.856 272.334 521.856 272.334C521.856 272.334 511.733 257.048 488.347 267.18Z" fill="#263238"/>
<path d="M494.51 317.17V327.814C494.51 327.814 485.078 344.297 488.75 345.334C495.778 347.334 511.416 329.814 511.416 329.814V307.33L494.51 317.17Z" fill="#945959"/>
<path d="M511.301 303.768V304.395C507.514 319.521 497.678 322.821 494.51 323.594L494.395 300.234L510.811 300.161L511.301 303.768Z" fill="#703838"/>
<path d="M495.576 270.1C489.312 270.626 476.28 275.268 476.078 292C475.877 308.732 478.411 321.536 486.979 322.061C495.547 322.587 514.699 314.761 515.578 293.007C516.456 271.253 501.696 269.56 495.576 270.1Z" fill="#945959"/>
<path d="M487.656 298.731L487.8 308.571L482.098 306.892L487.656 298.731Z" fill="#703838"/>
<path d="M496.181 298.468C496.139 298.971 495.912 299.439 495.545 299.78C495.178 300.122 494.699 300.311 494.201 300.311C493.703 300.311 493.223 300.122 492.857 299.78C492.49 299.439 492.263 298.971 492.221 298.468C492.217 297.935 492.42 297.421 492.787 297.039C493.153 296.656 493.653 296.435 494.179 296.424C494.444 296.42 494.708 296.47 494.953 296.572C495.199 296.673 495.422 296.824 495.609 297.015C495.795 297.205 495.942 297.432 496.041 297.682C496.139 297.932 496.187 298.199 496.181 298.468V298.468Z" fill="#263238"/>
<path d="M483.163 297.256C483.169 297.654 483.058 298.046 482.844 298.38C482.631 298.715 482.324 298.977 481.963 299.135C481.602 299.293 481.203 299.339 480.817 299.267C480.43 299.194 480.074 299.008 479.792 298.73C479.51 298.453 479.315 298.096 479.233 297.707C479.151 297.317 479.184 296.911 479.329 296.541C479.475 296.171 479.725 295.852 480.048 295.626C480.372 295.4 480.754 295.276 481.147 295.27C481.409 295.265 481.669 295.312 481.912 295.409C482.156 295.506 482.378 295.651 482.565 295.835C482.753 296.02 482.902 296.241 483.005 296.485C483.108 296.729 483.161 296.991 483.163 297.256V297.256Z" fill="#263238"/>
<path d="M478.714 293.139L482.544 290.759C482.544 290.759 481.104 289.211 479.578 290.175C479.155 290.523 478.846 290.992 478.692 291.521C478.538 292.05 478.545 292.614 478.714 293.139V293.139Z" fill="#313131"/>
<path d="M478.714 293.139L482.544 290.759C482.544 290.759 481.104 289.211 479.578 290.175C479.155 290.523 478.846 290.992 478.692 291.521C478.538 292.05 478.545 292.614 478.714 293.139V293.139Z" fill="#263238"/>
<path d="M505.915 297.563C505.915 297.563 505.526 304.614 509.53 304.614H517.378V291.168C517.378 276.086 506.102 260.333 482.098 272.786C482.098 272.786 480.96 292.92 505.915 297.563Z" fill="#263238"/>
<path d="M509.501 303.782C509.463 302.275 509.759 300.779 510.365 299.402C510.662 298.525 511.206 297.756 511.931 297.19C512.655 296.624 513.528 296.287 514.44 296.219C519.12 296.146 519.696 300.716 519.624 302.337C519.408 306.6 515.966 311.17 509.544 311.272L509.501 303.782Z" fill="#945959"/>
<path d="M492.854 311.681C492.854 312.007 492.759 312.326 492.58 312.597C492.401 312.869 492.147 313.08 491.85 313.205C491.553 313.33 491.225 313.363 490.91 313.299C490.594 313.235 490.304 313.078 490.077 312.847C489.849 312.617 489.694 312.323 489.631 312.003C489.569 311.683 489.601 311.351 489.724 311.049C489.847 310.748 490.056 310.49 490.323 310.309C490.591 310.128 490.905 310.031 491.227 310.031C491.659 310.031 492.073 310.205 492.378 310.514C492.683 310.824 492.854 311.243 492.854 311.681Z" fill="#703838"/>
<path d="M524.952 332.208C524.952 332.208 513.893 336.282 518.731 355.904C523.57 375.527 528.221 391.952 528.221 391.952L508.968 403.632C508.968 403.632 515.966 407.033 514.397 419.546C514.397 419.546 539.568 413.238 545.4 408.946C551.232 404.654 549.245 392.112 547.862 385.206C546.48 378.301 539.971 350.269 538.978 346.458C537.984 342.647 535.046 333.99 524.952 332.208Z" fill="#313131"/>
<path opacity="0.2" d="M524.952 332.208C524.952 332.208 513.893 336.282 518.731 355.904C523.57 375.527 528.221 391.952 528.221 391.952L508.968 403.632C508.968 403.632 515.966 407.033 514.397 419.546C514.397 419.546 539.568 413.238 545.4 408.946C551.232 404.654 549.245 392.112 547.862 385.206C546.48 378.301 539.971 350.269 538.978 346.458C537.984 342.647 535.046 333.99 524.952 332.208Z" fill="white"/>
<path d="M528.221 391.952C532.034 391.625 535.848 392.574 539.078 394.653C537.646 392.911 535.86 391.503 533.842 390.525C531.824 389.548 529.622 389.023 527.386 388.988L528.221 391.952Z" fill="#313131"/>
<path d="M448.862 439.007L399.499 409.807C399.389 409.742 399.297 409.648 399.233 409.535C399.17 409.423 399.136 409.295 399.136 409.165C399.136 409.035 399.17 408.907 399.233 408.795C399.297 408.682 399.389 408.588 399.499 408.523L454.219 374.329L448.862 439.007Z" fill="#313131"/>
<path opacity="0.4" d="M448.862 439.007L399.499 409.807C399.389 409.742 399.297 409.648 399.233 409.535C399.17 409.423 399.136 409.295 399.136 409.165C399.136 409.035 399.17 408.907 399.233 408.795C399.297 408.682 399.389 408.588 399.499 408.523L454.219 374.329L448.862 439.007Z" fill="#313131"/>
<path d="M448.862 439.007L503.899 406.698V392.01L448.862 424.188V439.007Z" fill="#313131"/>
<path opacity="0.2" d="M448.862 439.007L503.899 406.698V392.01L448.862 424.188V439.007Z" fill="#313131"/>
<path d="M493.157 408.961L471.427 421.692C469.987 422.539 468.806 421.692 468.806 419.677C468.82 418.683 469.064 417.706 469.519 416.826C469.975 415.946 470.628 415.187 471.427 414.611L493.157 401.894C494.597 401.047 495.778 401.894 495.778 403.894C495.761 404.888 495.515 405.863 495.06 406.743C494.605 407.623 493.953 408.382 493.157 408.961V408.961Z" fill="#E6E6E6"/>
<path d="M465.61 421.546C465.552 422.61 465.249 423.646 464.724 424.569C464.198 425.492 463.466 426.277 462.586 426.86C460.915 427.838 459.576 427.035 459.576 425.094C459.63 424.03 459.931 422.995 460.454 422.072C460.977 421.148 461.707 420.363 462.586 419.779C464.256 418.801 465.61 419.589 465.61 421.546Z" fill="#E6E6E6"/>
<path d="M448.862 424.188L399.686 400.755C399.569 400.692 399.471 400.597 399.402 400.482C399.334 400.366 399.298 400.233 399.298 400.098C399.298 399.963 399.334 399.831 399.402 399.715C399.471 399.6 399.569 399.505 399.686 399.441L452.419 367.643C452.717 367.46 453.055 367.357 453.402 367.341C453.749 367.326 454.094 367.4 454.406 367.555L503.957 392.01L448.862 424.188Z" fill="#313131"/>
<path d="M402.854 402.259V408.566L443.592 431.926V421.677L402.854 402.259Z" fill="#F5F5F5"/>
<path d="M443.592 431.926L448.862 428.598V424.188L443.592 421.677V431.926Z" fill="#E0E0E0"/>
<path d="M514.397 419.575C514.397 419.575 492.797 424.291 490.795 424.787C488.794 425.283 478.354 428.598 469.757 426.685L490.982 414.275C490.982 414.275 480.154 411.589 481.709 408.172C482.299 406.873 502.445 407.574 502.445 407.574L508.968 403.661C508.968 403.661 520.517 405.165 514.397 419.575Z" fill="#945959"/>
<path d="M399.269 394.682V378.403H489.01C489.326 378.403 498.96 383.484 503.222 385.703C503.414 385.812 503.574 385.971 503.685 386.163C503.796 386.356 503.855 386.575 503.855 386.798C503.855 387.021 503.796 387.24 503.685 387.432C503.574 387.625 503.414 387.784 503.222 387.893L450.043 418.378C449.67 418.593 449.25 418.713 448.821 418.726C448.392 418.738 447.966 418.644 447.581 418.451L399.269 394.682Z" fill="#313131"/>
<path opacity="0.4" d="M399.269 394.682V378.403H489.01C489.326 378.403 498.96 383.484 503.222 385.703C503.414 385.812 503.574 385.971 503.685 386.163C503.796 386.356 503.855 386.575 503.855 386.798C503.855 387.021 503.796 387.24 503.685 387.432C503.574 387.625 503.414 387.784 503.222 387.893L450.043 418.378C449.67 418.593 449.25 418.713 448.821 418.726C448.392 418.738 447.966 418.644 447.581 418.451L399.269 394.682Z" fill="#313131"/>
<path d="M448.862 414.567L499.781 385.542V379.235L448.862 406.698V414.567Z" fill="#E0E0E0"/>
<path d="M399.269 394.682L412.574 386.783L399.269 378.403V394.682Z" fill="#313131"/>
<path opacity="0.6" d="M399.269 394.682L412.574 386.783L399.269 378.403V394.682Z" fill="#313131"/>
<path d="M407.678 383.688V392.682L448.862 414.567V406.698L407.678 383.688Z" fill="#F5F5F5"/>
<path d="M399.269 378.403L447.149 407.34C447.669 407.66 448.262 407.838 448.871 407.856C449.479 407.874 450.082 407.731 450.619 407.442L503.41 379.41C503.595 379.307 503.752 379.156 503.863 378.973C503.974 378.789 504.036 378.58 504.043 378.365C504.05 378.15 504.003 377.937 503.904 377.747C503.806 377.556 503.66 377.395 503.482 377.279L455.314 345.538L399.269 378.403Z" fill="#313131"/>
<path d="M448.862 402.274L399.499 373.074C399.389 373.008 399.297 372.914 399.233 372.802C399.17 372.689 399.136 372.561 399.136 372.431C399.136 372.302 399.17 372.174 399.233 372.061C399.297 371.949 399.389 371.855 399.499 371.789L454.219 337.596L448.862 402.274Z" fill="#313131"/>
<path opacity="0.4" d="M448.862 402.274L399.499 373.074C399.389 373.008 399.297 372.914 399.233 372.802C399.17 372.689 399.136 372.561 399.136 372.431C399.136 372.302 399.17 372.174 399.233 372.061C399.297 371.949 399.389 371.855 399.499 371.789L454.219 337.596L448.862 402.274Z" fill="#313131"/>
<path d="M448.862 402.259L503.899 369.964V355.276L448.862 387.455V402.259Z" fill="#313131"/>
<path opacity="0.2" d="M448.862 402.259L503.899 369.964V355.276L448.862 387.455V402.259Z" fill="#313131"/>
<path d="M493.157 372.3L471.427 385.017C469.987 385.863 468.806 385.017 468.806 383.016C468.82 382.022 469.064 381.046 469.519 380.166C469.975 379.285 470.628 378.526 471.427 377.95L493.157 365.219C494.597 364.387 495.778 365.219 495.778 367.234C495.761 368.227 495.515 369.202 495.06 370.082C494.605 370.962 493.953 371.721 493.157 372.3V372.3Z" fill="#E6E6E6"/>
<path d="M465.61 384.812C465.555 385.875 465.252 386.91 464.726 387.831C464.201 388.752 463.467 389.534 462.586 390.112C460.915 391.09 459.576 390.302 459.576 388.345C459.632 387.284 459.933 386.252 460.456 385.331C460.979 384.41 461.708 383.627 462.586 383.046C464.256 382.067 465.61 382.856 465.61 384.812Z" fill="#E6E6E6"/>
<path d="M448.862 387.455L399.686 364.095C399.569 364.029 399.472 363.933 399.404 363.816C399.336 363.699 399.3 363.566 399.3 363.431C399.3 363.295 399.336 363.162 399.404 363.045C399.472 362.928 399.569 362.832 399.686 362.766L452.419 330.967C452.724 330.799 453.066 330.71 453.413 330.71C453.76 330.71 454.102 330.799 454.406 330.967L503.957 355.422L448.862 387.455Z" fill="#313131"/>
<path d="M402.854 365.526V371.833L443.592 395.193V384.944L402.854 365.526Z" fill="#F5F5F5"/>
<path d="M443.592 395.193L448.862 391.849V387.455L443.592 384.944V395.193Z" fill="#E0E0E0"/>
</svg>
